{"title":"White.Collar.S04E14.HDTV.x264.Shoot.The.Moon~subtitled~[gWc].mkv","uid":8167586,"size":136876823,"categoryP":"video","categoryS":"tv_shows","magnet":"?xt=urn:btih:7ff2d911b92c52582f9331c77d3cf4c11a20adff&amp;dn=White.Collar.S04E14.HDTV.x264.Shoot.The.Moon%7Esubtitled%7E%5BgWc%5D.mkv&amp;tr=udp%3A%2F%2Ftracker.openbittorrent.com%3A80&amp;tr=udp%3A%2F%2Fopen.demonii.com%3A1337&amp;tr=udp%3A%2F%2Ftracker.coppersurfer.tk%3A6969&amp;tr=udp%3A%2F%2Fexodus.desync.com%3A6969","seeders":1,"leechers":0,"uploader":"canc232","files":1,"time":1361360346,"description":"Episode Synopsis:\nPeter and Neal work from different angles as they attempt to stop a thieving duo bent on going out in a hail of bullets rather than watch their whirlwind relationship fade away behind bars\n\nScreens:\n &lt;a href=&quot;\nhttp://imageshack.us/a/img837/9072/whitecollar151702.jpg&quot; rel=&quot;nofollow&quot; target=&quot;_NEW&quot;&gt;\nhttp://imageshack.us/a/img837/9072/whitecollar151702.jpg&lt;/a&gt;\n &lt;a href=&quot;\nhttp://imageshack.us/a/img145/8937/whitecollar151708.jpg&quot; rel=&quot;nofollow&quot; target=&quot;_NEW&quot;&gt;\nhttp://imageshack.us/a/img145/8937/whitecollar151708.jpg&lt;/a&gt;\n &lt;a href=&quot;\nhttp://imageshack.us/a/img171/7889/whitecollar151800.jpg&quot; rel=&quot;nofollow&quot; target=&quot;_NEW&quot;&gt;\nhttp://imageshack.us/a/img171/7889/whitecollar151800.jpg&lt;/a&gt;\n\n\nFormat : Matroska \nFormat version : Version 4 / Version 2 \nFile size : 131 MiB \nDuration : 42mn 30s \nOverall bit rate mode : Variable \nOverall bit rate : 429 Kbps \nWriting application : mkvmerge v6.0.0 ('Coming Up For Air') built on Jan 20 2013 09:52:00 \nWriting library : libebml v1.3.0 + libmatroska v1.4.0 \n\nVideo \nID : 1 \nFormat : AVC \nFormat/Info : Advanced Video Codec \nFormat profile : &lt;a class=&quot;__cf_email__&quot; href=&quot;/cdn-cgi/l/email-protection&quot; data-cfemail=&quot;d59dbcb2bd9599e0fbe4&quot;&gt;[email&amp;#160;protected]&lt;/a&gt;&lt;script cf-hash='f9e31' type=&quot;text/javascript&quot;&gt;\n/* &lt;![CDATA[ */!function(){try{var t=&quot;currentScript&quot;in document?document.currentScript:function(){for(var t=document.getElementsByTagName(&quot;script&quot;),e=t.length;e--;)if(t[e].getAttribute(&quot;cf-hash&quot;))return t[e]}();if(t&amp;&amp;t.previousSibling){var e,r,n,i,c=t.previousSibling,a=c.getAttribute(&quot;data-cfemail&quot;);if(a){for(e=&quot;&quot;,r=parseInt(a.substr(0,2),16),n=2;a.length-n;n+=2)i=parseInt(a.substr(n,2),16)^r,e+=String.fromCharCode(i);e=document.createTextNode(e),c.parentNode.replaceChild(e,c)}}}catch(u){}}();/* ]]&gt; */&lt;/script&gt; \nFormat settings, CABAC : Yes \nFormat settings, ReFrames : 4 frames \nCodec ID : V_MPEG4/ISO/AVC \nDuration : 42mn 30s \nBit rate : 384 Kbps \nWidth : 720 pixels \nHeight : 416 pixels \nDisplay aspect ratio : 16:9 \nOriginal display aspect ratio : 16:9 \nFrame rate mode : Constant \nFrame rate : 23.976 fps \nColor space : YUV \nChroma subsampling : 4:2:0 \nBit depth : 8 bits \nScan type : Progressive \nBits/(Pixel*Frame) : 0.053 \nStream size : 112 MiB (86%) \nWriting library : x264 core\nDefault : Yes \nForced : No \n\nAudio \nID : 2 \nFormat : Vorbis \nFormat settings, Floor : 1 \nCodec ID : A_VORBIS \nDuration : 42mn 30s \nBit rate mode : Variable \nBit rate : 51.2 Kbps \nChannel(s) : 2 channels \nSampling rate : 22.05 KHz \nCompression mode : Lossy \nStream size : 15.6 MiB (12%) \nWriting library : aoTuV\nLanguage : English \nDefault : Yes \nForced : No \n\nText(thanks &quot;honeybunny&quot;) \nID : 3 \nFormat : UTF-8 \nCodec ID : S_TEXT/UTF8 \nCodec ID/Info : UTF-8 Plain Text \nLanguage : English \nDefault : Yes \nForced : No","torrent":{"xt":"urn:btih:7ff2d911b92c52582f9331c77d3cf4c11a20adff","amp;dn":"White.Collar.S04E14.HDTV.x264.Shoot.The.Moon%7Esubtitled%7E%5BgWc%5D.mkv","amp;tr":["udp%3A%2F%2Ftracker.openbittorrent.com%3A80","udp%3A%2F%2Fopen.demonii.com%3A1337","udp%3A%2F%2Ftracker.coppersurfer.tk%3A6969","udp%3A%2F%2Fexodus.desync.com%3A6969"],"infoHash":"7ff2d911b92c52582f9331c77d3cf4c11a20adff","infoHashBuffer":{"type":"Buffer","data":[127,242,217,17,185,44,82,88,47,147,49,199,125,60,244,193,26,32,173,255]},"announce":[],"urlList":[]}}